<svg xmlns="http://www.w3.org/2000/svg" version="1.1" xmlns:xlink="http://www.w3.org/1999/xlink" width="359" height="298"><svg xmlns="http://www.w3.org/2000/svg" version="1.1" xmlns:xlink="http://www.w3.org/1999/xlink" width="359" height="298"><svg width="359" height="298" viewBox="0 0 359 298" fill="none" xmlns="http://www.w3.org/2000/svg">
<rect width="359" height="298" fill="none"></rect>
<path d="M113.2 185.75C113.2 187.453 112.932 189.052 112.395 190.545C111.858 192.015 111.088 193.31 110.085 194.43C109.105 195.55 107.927 196.425 106.55 197.055C105.173 197.685 103.645 198 101.965 198H93.81C92.1067 198 90.5667 197.685 89.19 197.055C87.8133 196.425 86.6233 195.55 85.62 194.43C84.64 193.31 83.8817 192.015 83.345 190.545C82.8083 189.052 82.54 187.453 82.54 185.75C82.54 184.07 82.8083 182.495 83.345 181.025C83.8817 179.532 84.64 178.225 85.62 177.105C86.6233 175.962 87.8133 175.075 89.19 174.445C90.5667 173.815 92.1067 173.5 93.81 173.5H101.965C103.645 173.5 105.173 173.815 106.55 174.445C107.927 175.075 109.105 175.962 110.085 177.105C111.088 178.225 111.858 179.532 112.395 181.025C112.932 182.495 113.2 184.07 113.2 185.75ZM109.7 185.75C109.7 184.14 109.385 182.67 108.755 181.34C108.148 180.01 107.262 178.96 106.095 178.19C104.952 177.397 103.575 177 101.965 177H93.81C92.2 177 90.8117 177.397 89.645 178.19C88.5017 178.96 87.615 180.01 86.985 181.34C86.355 182.67 86.04 184.14 86.04 185.75C86.04 187.36 86.355 188.83 86.985 190.16C87.615 191.467 88.5017 192.517 89.645 193.31C90.8117 194.103 92.2 194.5 93.81 194.5H101.965C103.575 194.5 104.952 194.103 106.095 193.31C107.262 192.517 108.148 191.467 108.755 190.16C109.385 188.83 109.7 187.36 109.7 185.75ZM143.33 198H127.545C125.842 198 124.302 197.685 122.925 197.055C121.549 196.425 120.359 195.55 119.355 194.43C118.375 193.31 117.617 192.015 117.08 190.545C116.544 189.052 116.275 187.453 116.275 185.75C116.275 184.07 116.544 182.495 117.08 181.025C117.617 179.532 118.375 178.225 119.355 177.105C120.359 175.962 121.549 175.075 122.925 174.445C124.302 173.815 125.842 173.5 127.545 173.5H143.33V177H127.545C125.935 177 124.547 177.397 123.38 178.19C122.237 178.96 121.35 180.01 120.72 181.34C120.09 182.67 119.775 184.14 119.775 185.75C119.775 187.36 120.09 188.83 120.72 190.16C121.35 191.467 122.237 192.517 123.38 193.31C124.547 194.103 125.935 194.5 127.545 194.5H143.33V198ZM160.848 198H157.348V177H144.958V173.5H173.238V177H160.848V198ZM202.957 198H199.457V191H179.892V187.5H199.457V177H186.892C185.306 177 183.847 177.397 182.517 178.19C181.187 178.96 180.126 180.01 179.332 181.34C178.562 182.67 178.177 184.14 178.177 185.75V198H174.677V185.75C174.677 184.07 174.992 182.495 175.622 181.025C176.252 179.532 177.127 178.225 178.247 177.105C179.367 175.962 180.662 175.075 182.132 174.445C183.626 173.815 185.212 173.5 186.892 173.5H202.957V198ZM237.673 191C237.673 192.283 237.358 193.462 236.728 194.535C236.098 195.585 235.246 196.425 234.173 197.055C233.123 197.685 231.956 198 230.673 198H214.083V194.5H230.673C231.629 194.5 232.446 194.162 233.123 193.485C233.823 192.785 234.173 191.957 234.173 191C234.173 190.043 233.823 189.227 233.123 188.55C232.446 187.85 231.629 187.5 230.673 187.5H214.083V184H227.173C228.129 184 228.946 183.662 229.623 182.985C230.323 182.285 230.673 181.457 230.673 180.5C230.673 179.543 230.323 178.727 229.623 178.05C228.946 177.35 228.129 177 227.173 177H212.333V198H208.833V173.5H227.173C228.456 173.5 229.623 173.815 230.673 174.445C231.746 175.075 232.598 175.927 233.228 177C233.858 178.05 234.173 179.217 234.173 180.5C234.173 181.223 234.068 181.923 233.858 182.6C233.648 183.253 233.356 183.86 232.983 184.42C234.359 184.887 235.479 185.727 236.343 186.94C237.229 188.13 237.673 189.483 237.673 191ZM245.282 198H241.782V173.5H245.282V198ZM264.447 198H260.947V177H248.557V173.5H276.837V177H264.447V198Z" fill="url(#paint0_linear_23_2)"></path>
<path d="M120.228 218C120.016 218 119.874 217.91 119.8 217.731C119.735 217.544 119.703 217.333 119.703 217.097V205.207H113.123C112.895 205.207 112.688 205.199 112.5 205.183C112.313 205.166 112.22 205.056 112.22 204.853C112.22 204.617 112.317 204.483 112.513 204.45C112.716 204.418 112.92 204.401 113.123 204.401H127.295C127.531 204.401 127.735 204.418 127.906 204.45C128.085 204.483 128.174 204.617 128.174 204.853C128.174 205.056 128.085 205.166 127.906 205.183C127.735 205.199 127.531 205.207 127.295 205.207H120.74V217.097C120.74 217.333 120.712 217.544 120.655 217.731C120.606 217.91 120.464 218 120.228 218ZM131.08 218.134C129.045 218.134 127.576 217.711 126.673 216.865C125.77 216.01 125.318 214.822 125.318 213.3C125.318 212.039 125.574 211.054 126.087 210.346C126.608 209.638 127.312 209.138 128.199 208.845C129.086 208.552 130.075 208.405 131.165 208.405C132.858 208.405 134.123 208.731 134.961 209.382C135.808 210.025 136.231 210.948 136.231 212.153C136.231 212.373 136.198 212.633 136.133 212.934C136.068 213.227 136.003 213.374 135.938 213.374L126.294 213.251C126.327 214.855 126.742 215.949 127.54 216.535C128.345 217.121 129.521 217.414 131.067 217.414C131.979 217.414 132.74 217.333 133.35 217.17C133.969 216.999 134.465 216.812 134.839 216.608C135.222 216.397 135.503 216.23 135.682 216.108C135.706 216.092 135.739 216.083 135.779 216.083C135.869 216.083 135.95 216.128 136.023 216.218C136.105 216.299 136.146 216.389 136.146 216.486C136.146 216.576 136.105 216.649 136.023 216.706C135.934 216.796 135.702 216.958 135.328 217.194C134.961 217.422 134.428 217.638 133.729 217.841C133.037 218.037 132.154 218.134 131.08 218.134ZM126.307 212.653H135.511V212.08C135.511 211.534 135.372 211.042 135.096 210.603C134.819 210.155 134.363 209.797 133.729 209.528C133.094 209.26 132.239 209.125 131.165 209.125C129.66 209.125 128.488 209.386 127.649 209.907C126.819 210.428 126.372 211.343 126.307 212.653ZM145.301 218.122C144.072 218.122 142.99 217.984 142.054 217.707C141.126 217.43 140.402 216.946 139.881 216.254C139.36 215.555 139.1 214.57 139.1 213.3C139.1 212.039 139.34 211.054 139.82 210.346C140.308 209.638 141.016 209.138 141.944 208.845C142.872 208.552 143.991 208.405 145.301 208.405C146.017 208.405 146.757 208.479 147.522 208.625C148.296 208.763 149.036 209.016 149.744 209.382C149.915 209.471 150 209.597 150 209.76C150 209.972 149.887 210.078 149.659 210.078C149.585 210.078 149.5 210.057 149.402 210.017C149.142 209.886 148.788 209.752 148.34 209.614C147.893 209.475 147.4 209.361 146.863 209.272C146.334 209.174 145.813 209.125 145.301 209.125C143.437 209.125 142.098 209.451 141.285 210.102C140.479 210.745 140.076 211.811 140.076 213.3C140.076 214.798 140.507 215.856 141.37 216.474C142.241 217.093 143.547 217.402 145.289 217.402C145.809 217.402 146.334 217.357 146.863 217.268C147.4 217.17 147.893 217.052 148.34 216.914C148.788 216.775 149.142 216.641 149.402 216.511C149.5 216.47 149.585 216.45 149.659 216.45C149.887 216.45 150 216.556 150 216.767C150 216.93 149.915 217.056 149.744 217.146C149.036 217.512 148.296 217.768 147.522 217.915C146.757 218.053 146.017 218.122 145.301 218.122ZM153.907 218C153.679 218 153.536 217.906 153.479 217.719C153.423 217.532 153.394 217.333 153.394 217.121V205.256C153.394 205.061 153.423 204.869 153.479 204.682C153.536 204.495 153.679 204.401 153.907 204.401C154.102 204.401 154.228 204.491 154.285 204.67C154.342 204.849 154.371 205.044 154.371 205.256V210.749C154.509 210.261 154.773 209.862 155.164 209.553C155.563 209.243 156.023 209.007 156.543 208.845C157.064 208.674 157.593 208.56 158.13 208.503C158.667 208.438 159.144 208.405 159.559 208.405C160.73 208.405 161.658 208.548 162.342 208.833C163.034 209.109 163.53 209.573 163.831 210.224C164.132 210.875 164.283 211.766 164.283 212.897V217.121C164.283 217.333 164.254 217.532 164.197 217.719C164.14 217.906 164.014 218 163.819 218C163.583 218 163.436 217.906 163.379 217.719C163.331 217.532 163.306 217.333 163.306 217.121V212.897C163.306 212.051 163.208 211.351 163.013 210.798C162.826 210.236 162.464 209.817 161.927 209.541C161.39 209.264 160.6 209.125 159.559 209.125C158.932 209.125 158.252 209.199 157.52 209.345C156.788 209.492 156.128 209.744 155.542 210.102C154.957 210.46 154.566 210.961 154.371 211.604V217.121C154.371 217.333 154.342 217.532 154.285 217.719C154.228 217.906 154.102 218 153.907 218ZM168.543 218C168.315 218 168.169 217.906 168.104 217.719C168.047 217.532 168.018 217.333 168.018 217.121V209.211C168.018 209.073 168.047 208.946 168.104 208.833C168.16 208.71 168.303 208.649 168.531 208.649C168.734 208.649 168.86 208.706 168.909 208.82C168.966 208.926 168.995 209.056 168.995 209.211V210.554C169.45 209.919 169.975 209.451 170.569 209.15C171.163 208.841 171.774 208.641 172.4 208.552C173.027 208.454 173.617 208.405 174.17 208.405C175.334 208.405 176.254 208.548 176.929 208.833C177.613 209.109 178.101 209.573 178.394 210.224C178.687 210.875 178.833 211.766 178.833 212.897V217.121C178.833 217.333 178.797 217.532 178.724 217.719C178.659 217.906 178.528 218 178.333 218C178.097 218 177.959 217.906 177.918 217.719C177.877 217.532 177.857 217.333 177.857 217.121V212.897C177.857 212.051 177.763 211.351 177.576 210.798C177.389 210.236 177.027 209.817 176.49 209.541C175.961 209.264 175.175 209.125 174.134 209.125C173.499 209.125 172.819 209.199 172.095 209.345C171.379 209.492 170.732 209.744 170.154 210.102C169.576 210.46 169.19 210.961 168.995 211.604V217.121C168.995 217.333 168.97 217.532 168.921 217.719C168.873 217.906 168.746 218 168.543 218ZM188.196 218.122C186.699 218.122 185.507 217.927 184.62 217.536C183.733 217.146 183.094 216.592 182.703 215.876C182.321 215.152 182.129 214.293 182.129 213.3C182.129 211.575 182.618 210.33 183.594 209.565C184.579 208.792 186.113 208.405 188.196 208.405C190.28 208.405 191.81 208.792 192.786 209.565C193.771 210.33 194.263 211.575 194.263 213.3C194.263 214.293 194.068 215.152 193.677 215.876C193.295 216.592 192.66 217.146 191.773 217.536C190.886 217.927 189.694 218.122 188.196 218.122ZM188.196 217.402C189.303 217.402 190.194 217.284 190.87 217.048C191.545 216.812 192.054 216.494 192.396 216.096C192.745 215.697 192.981 215.257 193.104 214.777C193.226 214.289 193.287 213.797 193.287 213.3C193.287 211.787 192.884 210.712 192.078 210.078C191.272 209.443 189.979 209.125 188.196 209.125C186.414 209.125 185.12 209.443 184.314 210.078C183.509 210.712 183.106 211.787 183.106 213.3C183.106 213.797 183.167 214.289 183.289 214.777C183.411 215.257 183.643 215.697 183.985 216.096C184.335 216.494 184.847 216.812 185.523 217.048C186.198 217.284 187.09 217.402 188.196 217.402ZM198.218 218C197.982 218 197.84 217.919 197.791 217.756C197.742 217.585 197.718 217.39 197.718 217.17V205.28C197.718 205.044 197.742 204.841 197.791 204.67C197.848 204.491 197.999 204.401 198.243 204.401C198.446 204.401 198.572 204.491 198.621 204.67C198.67 204.849 198.694 205.044 198.694 205.256V217.146C198.694 217.382 198.666 217.585 198.609 217.756C198.552 217.919 198.422 218 198.218 218ZM208.216 218.122C206.718 218.122 205.526 217.927 204.639 217.536C203.752 217.146 203.113 216.592 202.723 215.876C202.34 215.152 202.149 214.293 202.149 213.3C202.149 211.575 202.637 210.33 203.614 209.565C204.598 208.792 206.132 208.405 208.216 208.405C210.299 208.405 211.829 208.792 212.806 209.565C213.79 210.33 214.283 211.575 214.283 213.3C214.283 214.293 214.087 215.152 213.697 215.876C213.314 216.592 212.68 217.146 211.792 217.536C210.905 217.927 209.713 218.122 208.216 218.122ZM208.216 217.402C209.323 217.402 210.214 217.284 210.889 217.048C211.565 216.812 212.073 216.494 212.415 216.096C212.765 215.697 213.001 215.257 213.123 214.777C213.245 214.289 213.306 213.797 213.306 213.3C213.306 211.787 212.903 210.712 212.098 210.078C211.292 209.443 209.998 209.125 208.216 209.125C206.434 209.125 205.14 209.443 204.334 210.078C203.528 210.712 203.125 211.787 203.125 213.3C203.125 213.797 203.187 214.289 203.309 214.777C203.431 215.257 203.663 215.697 204.004 216.096C204.354 216.494 204.867 216.812 205.542 217.048C206.218 217.284 207.109 217.402 208.216 217.402ZM223.365 222.15C222.185 222.15 221.249 222.045 220.557 221.833C219.874 221.63 219.316 221.43 218.885 221.235C218.722 221.153 218.6 221.052 218.519 220.93C218.445 220.816 218.409 220.71 218.409 220.612C218.409 220.401 218.514 220.295 218.726 220.295C218.824 220.295 218.934 220.327 219.056 220.393C219.495 220.596 220.065 220.795 220.765 220.991C221.473 221.194 222.339 221.296 223.365 221.296C224.699 221.296 225.802 221.056 226.673 220.576C227.552 220.096 227.991 219.331 227.991 218.281V216.828C227.291 217.316 226.506 217.654 225.635 217.841C224.773 218.028 223.938 218.122 223.133 218.122C221.888 218.122 220.826 217.984 219.947 217.707C219.076 217.43 218.409 216.934 217.945 216.218C217.489 215.502 217.261 214.493 217.261 213.19C217.261 211.978 217.509 211.026 218.006 210.334C218.51 209.634 219.21 209.138 220.105 208.845C221.009 208.552 222.055 208.405 223.243 208.405C224.447 208.405 225.379 208.535 226.038 208.796C226.697 209.056 227.165 209.37 227.442 209.736C227.727 210.102 227.91 210.44 227.991 210.749C227.991 210.603 227.983 210.436 227.967 210.249C227.959 210.053 227.955 209.862 227.955 209.675C227.955 209.398 227.979 209.158 228.028 208.955C228.085 208.751 228.203 208.649 228.382 208.649C228.618 208.649 228.772 208.743 228.846 208.93C228.927 209.117 228.968 209.309 228.968 209.504V218.281C228.968 219.567 228.479 220.531 227.503 221.174C226.535 221.825 225.155 222.15 223.365 222.15ZM223.182 217.402C224.028 217.402 224.874 217.308 225.721 217.121C226.567 216.926 227.324 216.608 227.991 216.169V211.604C227.91 211.294 227.727 210.957 227.442 210.59C227.157 210.224 226.693 209.911 226.05 209.65C225.416 209.382 224.512 209.248 223.34 209.248C221.648 209.248 220.374 209.553 219.52 210.163C218.665 210.765 218.238 211.819 218.238 213.325C218.238 214.326 218.392 215.123 218.702 215.717C219.019 216.311 219.54 216.743 220.264 217.011C220.988 217.272 221.961 217.402 223.182 217.402ZM238.086 222.077C237.175 222.077 236.447 222.016 235.901 221.894C235.356 221.772 234.925 221.621 234.607 221.442C234.298 221.263 234.038 221.092 233.826 220.93C233.761 220.873 233.729 220.795 233.729 220.698C233.729 220.429 233.855 220.295 234.107 220.295C234.172 220.295 234.241 220.319 234.314 220.368C234.624 220.596 235.055 220.816 235.608 221.027C236.17 221.247 236.996 221.357 238.086 221.357C239.209 221.357 240.088 221.186 240.723 220.844C241.358 220.511 241.806 219.949 242.066 219.16C242.334 218.37 242.469 217.292 242.469 215.925C242.339 216.421 242.082 216.816 241.7 217.109C241.325 217.402 240.886 217.622 240.381 217.768C239.885 217.915 239.376 218.008 238.855 218.049C238.343 218.098 237.879 218.122 237.464 218.122C236.3 218.122 235.368 217.976 234.668 217.683C233.977 217.382 233.476 216.877 233.167 216.169C232.866 215.461 232.715 214.497 232.715 213.276V209.528C232.715 209.317 232.74 209.117 232.789 208.93C232.837 208.743 232.972 208.649 233.191 208.649C233.427 208.649 233.57 208.743 233.619 208.93C233.667 209.117 233.692 209.317 233.692 209.528V213.276C233.692 214.334 233.79 215.164 233.985 215.766C234.188 216.368 234.559 216.792 235.096 217.036C235.641 217.28 236.43 217.402 237.464 217.402C238.09 217.402 238.754 217.341 239.454 217.219C240.162 217.089 240.796 216.857 241.358 216.523C241.919 216.189 242.29 215.705 242.469 215.07V209.528C242.469 209.317 242.497 209.117 242.554 208.93C242.611 208.743 242.737 208.649 242.933 208.649C243.169 208.649 243.311 208.743 243.36 208.93C243.417 209.117 243.445 209.317 243.445 209.528V215.522C243.445 217.19 243.262 218.5 242.896 219.453C242.538 220.413 241.964 221.088 241.175 221.479C240.394 221.878 239.364 222.077 238.086 222.077Z" fill="url(#paint1_linear_23_2)"></path>
<g clip-path="url(#paint2_diamond_23_2_clip_path)" data-figma-skip-parse="true"><g transform="matrix(0 0.0435 -0.044 0 179 121.5)"><rect x="0" y="0" width="1022.99" height="1022.73" fill="url(#paint2_diamond_23_2)" opacity="1" shape-rendering="crispEdges"></rect><rect x="0" y="0" width="1022.99" height="1022.73" transform="scale(1 -1)" fill="url(#paint2_diamond_23_2)" opacity="1" shape-rendering="crispEdges"></rect><rect x="0" y="0" width="1022.99" height="1022.73" transform="scale(-1 1)" fill="url(#paint2_diamond_23_2)" opacity="1" shape-rendering="crispEdges"></rect><rect x="0" y="0" width="1022.99" height="1022.73" transform="scale(-1)" fill="url(#paint2_diamond_23_2)" opacity="1" shape-rendering="crispEdges"></rect></g></g><path d="M177.408 164.081L171.742 158.84C169.314 156.824 169.641 155.248 171.742 153.196L185.502 139.49C188.336 136.667 189.145 137.071 191.978 139.49C195.216 141.102 198.898 138.271 196.835 135.055C195.142 132.509 194.025 131.239 191.573 129.411C189.55 128.202 188.336 128.202 186.717 129.411C184.952 131.031 183.977 132.001 182.265 133.846C179.463 136.875 178.068 136.615 175.789 133.846C174.263 131.746 173.346 130.675 171.337 129.411C169.58 128.699 168.529 128.635 166.481 129.411C163.679 130.685 162.519 131.938 160.815 134.652C160.276 136.224 160.266 137.113 160.815 138.683C161.618 140.677 164.862 140.699 166.885 138.683C169.718 135.861 174.575 141.102 172.551 143.118L167.695 148.359C164.881 151.329 163.282 151.013 160.41 148.359L151.506 139.49C149.887 137.877 149.482 135.861 151.506 133.846L156.363 129.008C157.577 127.799 157.946 125.762 156.363 124.171L150.697 118.527C147.863 115.704 143.418 120.706 145.84 123.364L147.459 124.977C149.887 127.395 144.374 131.671 141.793 129.815L135.722 123.768C134.508 122.558 134.949 120.128 136.127 118.93L145.435 109.658C147.906 107.03 149.324 107.075 151.911 109.658L161.624 119.333C162.931 120.201 164.457 120.542 166.076 119.333C166.076 119.333 170.685 116.567 171.742 114.092C172.551 112.479 172.956 109.657 171.742 108.852L168.909 107.642C167.146 106.487 165.285 107.78 166.481 109.657C167.251 110.867 168.909 110.464 168.504 111.674C168.1 112.883 166.296 113.002 164.862 112.077L156.767 104.82C154.051 102.3 154.211 100.889 156.767 98.3701L174.98 80.2291C178.114 77.3529 179.806 77.1626 182.669 80.2291L201.691 98.7733C203.646 100.774 203.314 101.815 201.691 103.611L194.406 111.27C192.058 113.302 190.894 113.38 189.145 111.27C188.74 110.464 191.169 110.464 191.573 109.255C192.383 106.836 189.954 107.239 188.74 107.642C187.772 108.206 187.241 108.564 186.312 109.255C184.945 110.523 185.098 112.077 186.312 113.689L190.764 118.527C192.424 120.028 194.811 120.139 196.43 118.527L205.739 109.255C208.314 106.866 209.734 106.757 212.214 109.255L221.523 118.527C223.504 120.71 223.481 121.94 221.523 124.171L215.857 129.815C213.428 131.83 209.29 127.52 211 124.977L213.023 122.558C214.642 120.946 209.886 116.161 207.762 117.721L201.691 123.364C199.668 125.38 199.909 127.451 201.691 129.411L206.143 133.443C208.722 135.993 208.362 137.29 206.143 139.49L196.835 148.762C194.9 150.26 193.74 150.17 191.573 148.762C189.251 147.381 188.17 147.332 186.717 148.762L181.86 153.6C179.768 155.961 179.976 157.284 181.86 159.647C184.693 162.871 180.791 166.819 177.408 164.081Z" data-figma-gradient-fill="{&quot;type&quot;:&quot;GRADIENT_DIAMOND&quot;,&quot;stops&quot;:[{&quot;color&quot;:{&quot;r&quot;:0.0,&quot;g&quot;:0.31764706969261169,&quot;b&quot;:1.0,&quot;a&quot;:1.0},&quot;position&quot;:0.0},{&quot;color&quot;:{&quot;r&quot;:0.0,&quot;g&quot;:0.19058823585510254,&quot;b&quot;:0.60000002384185791,&quot;a&quot;:1.0},&quot;position&quot;:1.0}],&quot;stopsVar&quot;:[{&quot;color&quot;:{&quot;r&quot;:0.0,&quot;g&quot;:0.31764706969261169,&quot;b&quot;:1.0,&quot;a&quot;:1.0},&quot;position&quot;:0.0},{&quot;color&quot;:{&quot;r&quot;:0.0,&quot;g&quot;:0.19058823585510254,&quot;b&quot;:0.60000002384185791,&quot;a&quot;:1.0},&quot;position&quot;:1.0}],&quot;transform&quot;:{&quot;m00&quot;:5.3884462572538570e-15,&quot;m01&quot;:-88.0,&quot;m02&quot;:223.0,&quot;m10&quot;:87.0,&quot;m11&quot;:5.3272138219803700e-15,&quot;m12&quot;:78.0},&quot;opacity&quot;:1.0,&quot;blendMode&quot;:&quot;NORMAL&quot;,&quot;visible&quot;:true}"></path>
<defs>
<clipPath id="paint2_diamond_23_2_clip_path"><path d="M177.408 164.081L171.742 158.84C169.314 156.824 169.641 155.248 171.742 153.196L185.502 139.49C188.336 136.667 189.145 137.071 191.978 139.49C195.216 141.102 198.898 138.271 196.835 135.055C195.142 132.509 194.025 131.239 191.573 129.411C189.55 128.202 188.336 128.202 186.717 129.411C184.952 131.031 183.977 132.001 182.265 133.846C179.463 136.875 178.068 136.615 175.789 133.846C174.263 131.746 173.346 130.675 171.337 129.411C169.58 128.699 168.529 128.635 166.481 129.411C163.679 130.685 162.519 131.938 160.815 134.652C160.276 136.224 160.266 137.113 160.815 138.683C161.618 140.677 164.862 140.699 166.885 138.683C169.718 135.861 174.575 141.102 172.551 143.118L167.695 148.359C164.881 151.329 163.282 151.013 160.41 148.359L151.506 139.49C149.887 137.877 149.482 135.861 151.506 133.846L156.363 129.008C157.577 127.799 157.946 125.762 156.363 124.171L150.697 118.527C147.863 115.704 143.418 120.706 145.84 123.364L147.459 124.977C149.887 127.395 144.374 131.671 141.793 129.815L135.722 123.768C134.508 122.558 134.949 120.128 136.127 118.93L145.435 109.658C147.906 107.03 149.324 107.075 151.911 109.658L161.624 119.333C162.931 120.201 164.457 120.542 166.076 119.333C166.076 119.333 170.685 116.567 171.742 114.092C172.551 112.479 172.956 109.657 171.742 108.852L168.909 107.642C167.146 106.487 165.285 107.78 166.481 109.657C167.251 110.867 168.909 110.464 168.504 111.674C168.1 112.883 166.296 113.002 164.862 112.077L156.767 104.82C154.051 102.3 154.211 100.889 156.767 98.3701L174.98 80.2291C178.114 77.3529 179.806 77.1626 182.669 80.2291L201.691 98.7733C203.646 100.774 203.314 101.815 201.691 103.611L194.406 111.27C192.058 113.302 190.894 113.38 189.145 111.27C188.74 110.464 191.169 110.464 191.573 109.255C192.383 106.836 189.954 107.239 188.74 107.642C187.772 108.206 187.241 108.564 186.312 109.255C184.945 110.523 185.098 112.077 186.312 113.689L190.764 118.527C192.424 120.028 194.811 120.139 196.43 118.527L205.739 109.255C208.314 106.866 209.734 106.757 212.214 109.255L221.523 118.527C223.504 120.71 223.481 121.94 221.523 124.171L215.857 129.815C213.428 131.83 209.29 127.52 211 124.977L213.023 122.558C214.642 120.946 209.886 116.161 207.762 117.721L201.691 123.364C199.668 125.38 199.909 127.451 201.691 129.411L206.143 133.443C208.722 135.993 208.362 137.29 206.143 139.49L196.835 148.762C194.9 150.26 193.74 150.17 191.573 148.762C189.251 147.381 188.17 147.332 186.717 148.762L181.86 153.6C179.768 155.961 179.976 157.284 181.86 159.647C184.693 162.871 180.791 166.819 177.408 164.081Z"></path></clipPath><linearGradient id="paint0_linear_23_2" x1="191.571" y1="170.25" x2="191.825" y2="230.451" gradientUnits="userSpaceOnUse">
<stop stop-color="#0051FF"></stop>
<stop offset="1" stop-color="#003099"></stop>
</linearGradient>
<linearGradient id="paint1_linear_23_2" x1="187.211" y1="201" x2="187.333" y2="235.401" gradientUnits="userSpaceOnUse">
<stop stop-color="#0051FF"></stop>
<stop offset="1" stop-color="#003099"></stop>
</linearGradient>
<linearGradient id="paint2_diamond_23_2" x1="0" y1="0" x2="500" y2="500" gradientUnits="userSpaceOnUse">
<stop stop-color="#0051FF"></stop>
<stop offset="1" stop-color="#003199"></stop>
</linearGradient>
</defs>
</svg></svg><style>@media (prefers-color-scheme: light) { :root { filter: none; } }
@media (prefers-color-scheme: dark) { :root { filter: none; } }
</style></svg>